<?xml version="1.0"?>
<svg version="1.1" xmlns="http://www.w3.org/2000/svg" width="100" height="60" style="border: dashed 2px #aaa"><path fill="#e0314c" d="M15.71484375,38.26171875q0-2.54296875,0.228515625-5.091796875t0.955078125-5.021484375q0.2109375-0.73828125,0.55078125-1.458984375t0.83203125-1.283203125t1.171875-0.9140625t1.6171875-0.3515625l0.24609375,0.0234375q1.0078125,0.140625,1.48828125,0.814453125t0.48046875,1.681640625q0,0.26953125-0.064453125,0.673828125t-0.205078125,0.779296875t-0.380859375,0.638671875t-0.603515625,0.263671875q-0.1640625-0.0234375-0.298828125-0.05859375t-0.251953125-0.15234375q0.1875-0.41015625,0.333984375-0.85546875t0.146484375-1.01953125q0-0.2109375-0.03515625-0.5390625t-0.134765625-0.650390625t-0.263671875-0.5625t-0.45703125-0.240234375q-0.73828125,0-1.2421875,0.826171875t-0.84375,2.109375t-0.50390625,2.8359375t-0.251953125,3t-0.099609375,2.61328125t-0.01171875,1.646484375q0,0.5625-0.01171875,1.2421875l0,0.15234375q0.01171875,0.59765625,0.08203125,1.13671875q0.09375,0.609375,0.36328125,1.0546875t0.84375,0.515625q0.17578125,0.0234375,0.33984375,0.0234375q0.6796875,0,1.23046875-0.38671875q0.6796875-0.48046875,1.20703125-1.248046875t0.9375-1.6875t0.755859375-1.740234375t0.673828125-1.359375t0.6796875-0.5390625q0.1171875,0,0.3515625,0.046875t0.234375,0.22265625q0,0.046875-0.0234375,0.12890625t-0.05859375,0.12890625q-0.31640625,1.2421875-0.802734375,2.578125t-1.2421875,2.431640625t-1.8515625,1.787109375t-2.630859375,0.69140625q-1.1015625,0-1.787109375-0.416015625t-1.0546875-1.11328125t-0.50390625-1.576171875t-0.134765625-1.78125z M28.2031640625,24.26953125q0-0.234375,0.36328125-0.333984375t0.59765625-0.099609375q0.26953125,0,0.591796875,0.0703125t0.392578125,0.36328125q0.33984375,1.37109375,0.521484375,2.794921875t0.275390625,2.865234375t0.15234375,2.865234375t0.12890625,2.818359375q0.31640625-1.39453125,0.650390625-2.771484375t0.873046875-2.748046875l0-0.9375q0-0.59765625,0.416015625-0.861328125t1.119140625-0.263671875q0.0703125,0,0.322265625,0.03515625t0.251953125,0.234375q-0.046875,0.140625-0.111328125,0.26953125t-0.064453125,0.28125q0,1.78125,0.421875,3.650390625t0.83203125,3.638671875q0.234375-1.51171875,0.5390625-3.01171875t0.6328125-2.98828125q0.43359375-1.9921875,0.662109375-3.310546875t0.43359375-2.0859375t0.4453125-1.08984375t0.673828125-0.322265625q0.26953125-0.0234375,0.50390625,0.09375t0.1875,0.38671875q-0.84375,4.078125-1.576171875,8.1796875t-1.494140625,8.203125q0,0.234375,0.08203125,0.55078125t0.08203125,0.5625q0,0.140625-0.12890625,0.234375t-0.310546875,0.158203125t-0.3984375,0.087890625t-0.380859375,0.0234375q-0.36328125,0-0.76171875-0.111328125t-0.515625-0.638671875q-0.41015625-1.828125-0.755859375-3.673828125t-0.638671875-3.720703125q-0.09375,0.43359375-0.17578125,0.87890625t-0.15234375,0.90234375q-0.33984375,1.9921875-0.75,3.984375t-0.41015625,4.03125q0,0.50390625-0.2109375,0.650390625t-0.71484375,0.146484375q-0.38671875,0-0.65625-0.12890625q-0.2109375-0.1171875-0.3984375-0.2109375q-0.1640625-0.09375-0.298828125-0.216796875t-0.134765625-0.240234375q-0.1875-2.54296875-0.263671875-5.05078125t-0.169921875-5.05078125q-0.09375-2.28515625-0.275390625-4.564453125t-0.404296875-4.529296875z M42.437578125,40.734375q0.0234375-0.4921875,0.0234375-0.9609375q0-1.69921875,0.123046875-3.38671875t0.169921875-3.38671875q0.0703125-1.9453125,0.12890625-3.85546875t0.234375-3.84375q0.046875-0.48046875,0.275390625-0.626953125t0.685546875-0.146484375q0.2109375,0,0.5625,0.08203125t0.3515625,0.3984375q0.1640625,0.0234375,0.328125,0.0234375q0.24609375,0,0.50390625-0.046875q0.421875-0.0703125,0.861328125-0.158203125t0.873046875-0.169921875t0.83203125-0.08203125q0.09375,0,0.263671875,0.01171875t0.33984375,0.0703125t0.287109375,0.146484375t0.1171875,0.228515625t-0.275390625,0.251953125t-0.720703125,0.193359375t-0.9609375,0.140625t-1.0078125,0.099609375t-0.873046875,0.064453125t-0.544921875,0.0234375l-0.0234375,4.40625l0.0234375,2.19140625q0.36328125,0,1.08984375-0.0234375q0.29296875-0.01171875,0.5859375-0.01171875q0.4453125,0,0.9140625,0.0234375q0.7734375,0.03515625,1.39453125,0.140625t0.78515625,0.375q0,0.1640625-0.169921875,0.263671875t-0.380859375,0.146484375t-0.427734375,0.05859375t-0.310546875,0.01171875q-0.8671875,0-1.74609375-0.03515625t-1.734375-0.140625q0,1.44140625-0.076171875,2.859375t-0.076171875,2.859375q0,0.62109375,0.01171875,1.224609375t0.140625,1.201171875q0.31640625-0.0234375,0.685546875-0.05859375t0.75-0.087890625t0.732421875-0.087890625t0.609375-0.03515625q0.140625,0,0.380859375,0.03515625t0.4921875,0.1171875t0.43359375,0.205078125t0.181640625,0.287109375q0,0.1875-0.345703125,0.333984375t-0.884765625,0.234375t-1.177734375,0.123046875t-1.236328125,0.046875t-1.078125,0.01171875l-0.6796875,0q-0.64453125,0-0.943359375-0.240234375t-0.416015625-0.626953125q-0.09375-0.31640625-0.08203125-0.71484375l0-0.1640625z M52.2130078125,25.458984375q-0.029296875-0.357421875,0.046875-0.62109375t0.3046875-0.43359375t0.732421875-0.169921875l1.88671875,0q0.38671875,0,1.013671875,0.041015625t1.34765625,0.123046875t1.435546875,0.251953125t1.306640625,0.421875t0.9609375,0.62109375t0.369140625,0.873046875q0,0.71484375-0.416015625,1.341796875t-1.04296875,1.130859375t-1.32421875,0.896484375t-1.248046875,0.708984375q2.1796875,0.48046875,3.41015625,1.9921875t1.23046875,3.7734375q0,1.1953125-0.45703125,2.361328125t-1.248046875,2.103515625t-1.875,1.51171875t-2.326171875,0.57421875q-0.1640625,0-0.369140625-0.03515625t-0.375-0.111328125t-0.29296875-0.216796875t-0.123046875-0.36328125q0-1.03125,1.11328125-1.03125q0.1875,0,0.439453125,0.052734375t0.392578125,0.216796875q0.64453125-0.26953125,1.177734375-0.85546875t0.90234375-1.306640625t0.57421875-1.51171875t0.205078125-1.435546875q0-0.7734375-0.228515625-1.576171875t-0.662109375-1.48828125t-1.06640625-1.154296875t-1.453125-0.5859375q-0.2109375-0.0234375-0.462890625-0.03515625l-0.50390625-0.0234375t-0.4921875-0.0703125t-0.416015625-0.1875q0.09375,1.9453125,0.240234375,3.87890625t0.392578125,3.87890625q0.09375,0.09375,0.12890625,0.275390625t0.05859375,0.38671875t0.0234375,0.392578125l0,0.31640625q0,0.2109375-0.140625,0.345703125t-0.333984375,0.216796875t-0.41015625,0.10546875t-0.380859375,0.0234375q-0.52734375,0-0.80859375-0.140625t-0.3984375-0.41015625t-0.15234375-0.615234375t-0.05859375-0.755859375q-0.31640625-3.26953125-0.45703125-6.46875t-0.140625-6.46875q0-0.38671875-0.029296875-0.744140625z M54.3751171875,24.9609375q0,1.44140625,0.09375,2.888671875t0.1640625,2.888671875q0.52734375-0.31640625,1.3828125-0.744140625t1.658203125-0.943359375t1.376953125-1.13671875t0.57421875-1.34765625q0-0.57421875-0.6796875-0.873046875t-1.58203125-0.4453125t-1.763671875-0.181640625t-1.224609375-0.10546875z"/><path fill="#" d=""/></svg>
